<?xml version="1.0" encoding="UTF-8"?>
<svg id="Layer_32" data-name="Layer 32" xmlns="http://www.w3.org/2000/svg" viewBox="0 0 2614.25 784.45">
  <defs>
    <style>
      .cls-1 {
        stroke-width: 0px;
        fill: #474747;
      }
    </style>
  </defs>
  <g id="Logomark">
    <path class="cls-1" d="m767.63,489.55l-.06-.6c-.04-.36-.08-.73-.12-1.09v-.05s-.01-.05-.01-.05c-.08-.71-.16-1.41-.24-2.12v-.02s0-.02,0-.02c-1.03-8.79-2.46-17.68-4.25-26.42-.45-2.2-.92-4.36-1.39-6.4-.81-3.55-1.66-7.03-2.53-10.35-.98-3.73-2.04-7.48-3.16-11.17-1.36-4.52-2.85-9.06-4.43-13.5-1.46-4.14-3.03-8.3-4.68-12.41-2.45-6.11-5.14-12.24-8-18.21-.75-1.57-1.45-3.01-2.15-4.4-.24-.49-.48-.97-.72-1.44l-.03-.05-.03-.05c-.48-.96-.97-1.92-1.47-2.87v-.02s-.02-.02-.02-.02c-3.4-6.58-7.1-13.16-11.01-19.55-2.26-3.7-4.63-7.4-7.04-11.02-2.22-3.32-4.57-6.68-6.97-9.99-3.2-4.41-6.56-8.79-9.99-13.03-1.79-2.21-3.63-4.42-5.46-6.57-1.62-1.89-3.22-3.72-4.76-5.44-3.89-4.35-7.95-8.63-12.07-12.75-4.12-4.12-8.41-8.18-12.75-12.06-1.72-1.55-3.56-3.15-5.46-4.78-2.13-1.82-4.34-3.65-6.55-5.44-4.24-3.43-8.62-6.79-13.02-9.99-3.31-2.41-6.67-4.76-10-6.98-3.61-2.42-7.32-4.79-11.01-7.04-6.4-3.91-12.97-7.61-19.55-11.01h-.02s-.02-.02-.02-.02c-.95-.5-1.92-.99-2.87-1.47l-.05-.03-.05-.03c-.47-.24-.95-.48-1.42-.71-1.41-.7-2.85-1.41-4.42-2.16-4.29-2.04-8.7-4.03-13.1-5.89-1.68-.71-3.4-1.41-5.1-2.1-4.11-1.65-8.28-3.23-12.39-4.67-4.47-1.59-9.01-3.07-13.5-4.43-3.71-1.13-7.46-2.19-11.17-3.16-3.33-.88-6.81-1.73-10.35-2.54-2.06-.47-4.21-.94-6.43-1.39-8.73-1.79-17.62-3.21-26.41-4.24h-.02s-.02,0-.02,0c-.71-.09-1.41-.17-2.12-.24h-.05s-.05-.01-.05-.01c-.36-.04-.73-.08-1.09-.12l-.6-.06c-10.97-1.15-22.17-1.73-33.28-1.73s-22.31.58-33.28,1.74l-.59.06c-.36.04-.73.08-1.09.12h-.05s-.05.01-.05.01c-.71.08-1.41.16-2.12.24h-.02s-.02,0-.02,0c-8.79,1.03-17.68,2.46-26.42,4.25-2.2.45-4.36.92-6.4,1.39-3.55.81-7.03,1.66-10.35,2.53-3.73.98-7.48,2.04-11.16,3.16-4.52,1.36-9.06,2.85-13.5,4.43-4.14,1.46-8.3,3.03-12.41,4.68-1.71.69-3.43,1.39-5.12,2.11-4.39,1.86-8.8,3.84-13.1,5.89-1.56.75-3,1.45-4.39,2.14-.49.24-.97.48-1.44.72l-.05.03-.06.03c-.96.48-1.92.97-2.87,1.46h-.02s-.02.02-.02.02c-6.58,3.4-13.16,7.1-19.55,11.01-3.7,2.26-7.4,4.63-11.02,7.05-3.32,2.22-6.68,4.57-9.99,6.97-4.41,3.2-8.79,6.56-13.03,9.99-2.21,1.79-4.42,3.62-6.57,5.46-1.89,1.62-3.72,3.22-5.44,4.76-4.35,3.89-8.63,7.95-12.75,12.07-4.12,4.12-8.18,8.41-12.06,12.75-1.55,1.72-3.15,3.56-4.78,5.46-1.82,2.13-3.65,4.34-5.44,6.55-3.43,4.24-6.79,8.62-9.99,13.02-2.41,3.31-4.76,6.67-6.98,9.99-2.42,3.62-4.79,7.32-7.04,11.01-3.91,6.39-7.61,12.97-11.01,19.55v.02s-.02.02-.02.02c-.5.95-.99,1.92-1.46,2.87l-.03.06-.03.06c-.23.45-.46.91-.68,1.36l-.03.06c-.7,1.4-1.4,2.84-2.16,4.42-2.85,5.97-5.54,12.1-7.99,18.2-1.65,4.11-3.23,8.28-4.68,12.39-1.59,4.47-3.07,9-4.43,13.5-1.13,3.71-2.19,7.46-3.16,11.17-.88,3.34-1.73,6.81-2.54,10.35-.47,2.06-.94,4.22-1.39,6.43-1.79,8.73-3.21,17.62-4.24,26.41v.02s0,.02,0,.02c-.09.71-.17,1.41-.24,2.12v.04s0,.04,0,.04c-.04.36-.08.73-.12,1.09l-.06.6c-.84,8.01-1.38,16.14-1.61,24.27h113.21l-2.64-2.64-15.37-15.37h-76.26l1.24-10.1c.11-.89.22-1.78.34-2.67,1.21-9.02,2.85-18.09,4.88-26.96.61-2.62,1.22-5.15,1.83-7.52,1.12-4.36,2.36-8.75,3.68-13.05.85-2.76,1.76-5.57,2.7-8.36,1.84-5.39,3.81-10.68,5.87-15.76,1.44-3.56,3.01-7.22,4.65-10.87,3.32-7.35,6.98-14.63,10.88-21.64.53-.98,1.09-1.97,1.66-2.96.33-.59.65-1.15.97-1.7,1.28-2.21,2.57-4.38,3.84-6.44,3.03-4.95,6.25-9.88,9.58-14.65,3.77-5.43,7.81-10.82,11.99-16.03,1.43-1.79,2.77-3.43,4.11-5.01,1.6-1.92,3.28-3.88,5.01-5.83,4.07-4.61,8.35-9.17,12.73-13.56,4.39-4.39,8.95-8.67,13.57-12.75,1.94-1.72,3.9-3.4,5.83-5,1.58-1.34,3.22-2.68,5.01-4.11,5.21-4.18,10.61-8.22,16.04-12,4.76-3.32,9.69-6.55,14.64-9.58,2.06-1.27,4.22-2.56,6.43-3.83.55-.32,1.11-.64,1.7-.97.98-.57,1.97-1.13,2.95-1.66,4.58-2.55,9.28-4.99,13.96-7.27,2.6-1.27,5.19-2.49,7.69-3.62,3.65-1.65,7.31-3.21,10.88-4.66,5.06-2.05,10.36-4.03,15.73-5.86,2.8-.95,5.62-1.86,8.38-2.71,4.3-1.32,8.69-2.56,13.04-3.68,2.39-.61,4.91-1.23,7.51-1.83,8.89-2.04,17.97-3.68,27-4.89.87-.12,1.75-.23,2.63-.34.68-.09,1.38-.17,2.09-.25,11.55-1.36,23.35-2.05,35.06-2.05s23.51.69,35.06,2.05c.71.08,1.41.16,2.09.25.88.11,1.76.22,2.64.34,9.02,1.21,18.09,2.85,26.96,4.88,2.62.61,5.14,1.22,7.52,1.83,4.36,1.12,8.75,2.36,13.05,3.68,2.76.85,5.57,1.76,8.36,2.7,5.39,1.84,10.68,3.81,15.76,5.87,3.56,1.44,7.22,3.01,10.87,4.65,2.49,1.12,5.08,2.34,7.71,3.63,4.66,2.26,9.35,4.71,13.94,7.26.98.54,1.97,1.09,2.95,1.66.59.33,1.15.65,1.7.97,2.21,1.28,4.38,2.57,6.44,3.84,4.95,3.03,9.88,6.25,14.65,9.58,5.42,3.77,10.82,7.81,16.03,11.99,1.79,1.43,3.43,2.77,5.01,4.11,1.92,1.6,3.88,3.28,5.83,5.01,4.61,4.07,9.17,8.35,13.56,12.73,4.39,4.39,8.67,8.95,12.75,13.57,1.72,1.94,3.4,3.9,5,5.83,1.34,1.58,2.68,3.22,4.11,5.01,4.18,5.21,8.22,10.61,12,16.04,3.32,4.76,6.55,9.69,9.57,14.64,1.27,2.06,2.56,4.22,3.84,6.44.32.55.64,1.11.97,1.7.57.98,1.12,1.97,1.66,2.95,3.9,7.01,7.56,14.29,10.88,21.64,1.65,3.66,3.22,7.32,4.66,10.89,2.05,5.06,4.03,10.36,5.86,15.73.95,2.81,1.86,5.62,2.71,8.38,1.32,4.3,2.56,8.69,3.68,13.04.61,2.39,1.23,4.91,1.83,7.51,2.04,8.89,3.68,17.97,4.89,27,.12.87.23,1.77.34,2.66l1.24,10.1h-76.26l-18.01,18.01h113.21c-.23-8.13-.77-16.26-1.61-24.27Z"/>
    <path class="cls-1" d="m494.69,329.22l-10.78-10.78-2.73-2.73-27.01-27.01-54.02,54.02,8.04,8.04,5.47,5.47,40.51,40.51,54.02-54.02-13.5-13.5Zm-40.51,40.51l-13.5-13.5-11.24-11.24-2.26-2.26,27.01-27.01,27.01,27.01-27.01,27.01Z"/>
    <polygon class="cls-1" points="580.22 414.75 580.22 450.76 454.18 576.8 400.16 522.78 388.52 511.15 382.16 504.78 346.14 468.77 335.91 458.53 328.14 450.76 328.14 414.75 346.14 432.76 352.32 438.93 364.15 450.76 377.79 464.4 382.16 468.77 418.17 504.78 428.72 515.33 436.17 522.78 454.18 540.79 580.22 414.75"/>
    <polygon class="cls-1" points="562.22 342.73 562.22 378.74 454.18 486.77 436.17 468.77 424.54 457.13 418.17 450.76 382.16 414.75 371.92 404.52 364.15 396.74 346.14 378.74 346.14 342.73 364.15 360.73 368.05 364.63 382.16 378.74 454.18 450.76 562.22 342.73"/>
  </g>
  <g id="Wordmark">
    <path class="cls-1" d="m872.42,518.18v-2.8c7.4-2.3,14.03-8.42,14.03-16.07v-156.58c0-7.65-6.63-13.77-14.03-16.07v-2.8h64.77c27.54,0,63.75,11.99,63.75,44.63,0,18.87-13.52,33.66-30.86,39.53,25.76,6.63,47.43,25.5,47.43,53.55,0,36.21-33.41,56.61-67.58,56.61h-77.52Zm39.27-182.59v168.31h39.78c24.48,0,39.27-19.89,39.27-42.59,0-24.74-16.32-43.61-42.59-43.61-11.48,0-26.78,5.35-26.78,17.6l-3.06,1.79c-2.04-3.06-3.57-7.14-3.57-10.71,0-18.87,18.11-22.44,33.15-22.44,17.6,0,27.54-19.38,27.54-34.68,0-22.19-16.32-33.66-38.51-33.66h-25.25Z"/>
    <path class="cls-1" d="m1186.72,322.84c58.65,0,98.44,38,98.44,94.61s-38.76,103.02-98.44,103.02-98.69-38-98.69-94.61,38.76-103.02,98.69-103.02Zm-.77,184.12c45.9,0,69.62-48.45,69.62-89.25s-22.7-81.6-69.87-81.6-69.87,48.2-69.87,89.25,22.7,81.6,70.13,81.6Z"/>
    <path class="cls-1" d="m1358.6,324.37h40.8l94.35,137.2v-118.58c0-7.4-11.22-13.77-18.36-16.06v-2.81h50.75v2.81c-7.14,2.29-18.62,8.67-18.62,16.06v182.84l-120.62-173.41v146.89c0,7.4,11.48,13.77,18.62,16.07v2.8h-50.75v-2.8c7.14-2.3,18.62-8.67,18.62-16.07v-152.5c0-15.81-10.97-18.11-14.79-20.15v-2.3Z"/>
    <path class="cls-1" d="m1588.41,515.12l.51-.25c6.63-2.04,21.17-8.93,23.46-14.79l16.32-41.31c-11.73-3.57-21.42-9.95-21.42-23.72,0-3.06.51-6.12,1.28-9.18h3.32c1.78,9.69,13.77,14.28,23.46,16.32l48.96-124.7,69.62,184.12c2.3,6.63,12.75,12.5,18.36,13.51l1.02,3.06h-53.55l-.77-2.8c4.85-2.04,8.42-5.61,8.42-10.71,0-48.96-53.04-39.27-83.39-43.1l-15.56,40.55c-2.55,6.12,9.69,11.48,13.52,13.26l-.77,2.8h-53.81l1.02-3.06Zm120.11-63.5l-29.58-79.05-28.31,71.4c18.87,1.53,40.29-.25,57.89,7.65Z"/>
    <path class="cls-1" d="m1849.1,324.37h40.8l94.36,137.2v-118.58c0-7.4-11.22-13.77-18.36-16.06v-2.81h50.75v2.81c-7.14,2.29-18.61,8.67-18.61,16.06v182.84l-120.62-173.41v146.89c0,7.4,11.48,13.77,18.62,16.07v2.8h-50.75v-2.8c7.14-2.3,18.62-8.67,18.62-16.07v-152.5c0-15.81-10.96-18.11-14.79-20.15v-2.3Z"/>
    <path class="cls-1" d="m2199.21,504.17c7.4,0,15.81-13.75,18.11-20.62h3.06l-2.04,34.63h-134.14l101.75-179.77-76.25-.27c-7.14,0-15.56,13.48-17.85,20.62h-3.06l2.04-34.63h130.31l-103.02,179.77,81.09.26Z"/>
    <path class="cls-1" d="m2290.24,515.12l.51-.25c6.63-2.04,21.17-8.93,23.46-14.79l16.32-41.31c-11.73-3.57-21.42-9.95-21.42-23.72,0-3.06.51-6.12,1.28-9.18h3.32c1.78,9.69,13.77,14.28,23.46,16.32l48.96-124.7,69.62,184.12c2.3,6.63,12.75,12.5,18.36,13.51l1.02,3.06h-53.55l-.77-2.8c4.85-2.04,8.42-5.61,8.42-10.71,0-48.96-53.04-39.27-83.39-43.1l-15.56,40.55c-2.55,6.12,9.69,11.48,13.52,13.26l-.77,2.8h-53.81l1.02-3.06Zm120.11-63.5l-29.58-79.05-28.31,71.4c18.87,1.53,40.29-.25,57.89,7.65Z"/>
  </g>
</svg>