<?xml version="1.0" encoding="UTF-8"?>
<svg id="Layer_30" data-name="Layer 30" xmlns="http://www.w3.org/2000/svg" viewBox="0 0 1007.56 735.43">
  <defs>
    <style>
      .cls-1 {
        stroke-width: 0px;
        fill: #474747
      }
    </style>
  </defs>
  <g>
    <path class="cls-1" d="m898.3,422l-.08-.76c-.05-.46-.1-.92-.15-1.38v-.06s-.01-.06-.01-.06c-.1-.89-.2-1.78-.3-2.67v-.02s0-.02,0-.02c-1.3-11.08-3.1-22.28-5.35-33.31-.57-2.77-1.16-5.49-1.75-8.07-1.02-4.48-2.09-8.86-3.19-13.04-1.23-4.7-2.57-9.43-3.98-14.07-1.72-5.7-3.59-11.42-5.58-17.02-1.84-5.21-3.82-10.47-5.9-15.64-3.09-7.7-6.48-15.42-10.08-22.96-.94-1.97-1.83-3.79-2.7-5.54-.31-.62-.6-1.22-.91-1.82l-.04-.07-.03-.07c-.6-1.21-1.22-2.43-1.85-3.62v-.03s-.03-.03-.03-.03c-4.28-8.3-8.95-16.59-13.87-24.64-2.85-4.66-5.83-9.33-8.88-13.88-2.8-4.19-5.76-8.42-8.79-12.59-4.04-5.56-8.27-11.08-12.59-16.42-2.26-2.79-4.57-5.57-6.88-8.28-2.04-2.38-4.06-4.69-6-6.85-4.9-5.48-10.02-10.88-15.21-16.08-5.19-5.19-10.6-10.31-16.07-15.2-2.17-1.95-4.48-3.97-6.88-6.02-2.69-2.29-5.47-4.6-8.25-6.86-5.34-4.33-10.86-8.56-16.42-12.59-4.18-3.04-8.41-5.99-12.6-8.8-4.55-3.05-9.22-6.04-13.88-8.88-8.06-4.93-16.35-9.6-24.65-13.88h-.03s-.03-.03-.03-.03c-1.2-.62-2.41-1.25-3.62-1.85l-.07-.03-.07-.04c-.6-.31-1.19-.6-1.79-.9-1.78-.89-3.6-1.77-5.58-2.72-5.4-2.58-10.96-5.08-16.52-7.43-2.11-.89-4.28-1.78-6.43-2.64-5.18-2.09-10.43-4.07-15.62-5.89-5.63-2-11.35-3.87-17.02-5.58-4.67-1.42-9.4-2.76-14.08-3.99-4.2-1.11-8.58-2.18-13.05-3.2-2.59-.59-5.31-1.18-8.1-1.76-11.01-2.25-22.22-4.05-33.29-5.35h-.02s-.02,0-.02,0c-.89-.11-1.78-.21-2.67-.3h-.06s-.06-.01-.06-.01c-.46-.05-.92-.1-1.38-.15l-.76-.08c-13.83-1.45-27.94-2.19-41.95-2.19s-28.12.74-41.96,2.19l-.75.08c-.46.05-.92.1-1.38.15h-.06s-.06.01-.06.01c-.89.1-1.78.2-2.67.3h-.02s-.02,0-.02,0c-11.08,1.3-22.28,3.1-33.31,5.35-2.77.57-5.5,1.16-8.07,1.75-4.48,1.02-8.86,2.09-13.04,3.19-4.7,1.23-9.43,2.57-14.07,3.98-5.7,1.72-11.41,3.59-17.02,5.58-5.21,1.83-10.47,3.82-15.64,5.9-2.15.86-4.32,1.76-6.45,2.66-5.53,2.34-11.09,4.85-16.51,7.43-1.97.94-3.78,1.83-5.54,2.7-.62.31-1.22.6-1.82.91l-.07.04-.07.03c-1.21.6-2.43,1.22-3.62,1.85h-.03s-.03.03-.03.03c-8.3,4.28-16.59,8.95-24.64,13.87-4.66,2.85-9.33,5.83-13.88,8.88-4.19,2.8-8.42,5.76-12.59,8.79-5.56,4.04-11.08,8.27-16.42,12.59-2.79,2.25-5.57,4.57-8.28,6.88-2.38,2.04-4.69,4.06-6.85,6-5.48,4.9-10.88,10.02-16.08,15.21-5.19,5.19-10.31,10.6-15.2,16.07-1.95,2.17-3.97,4.48-6.02,6.88-2.3,2.69-4.61,5.47-6.86,8.25-4.33,5.34-8.56,10.86-12.59,16.42-3.04,4.18-6,8.41-8.8,12.6-3.05,4.56-6.04,9.23-8.88,13.88-4.93,8.06-9.6,16.35-13.88,24.65v.03s-.03.03-.03.03c-.63,1.2-1.25,2.42-1.85,3.62l-.04.07-.04.07c-.3.57-.58,1.15-.86,1.72l-.04.07c-.88,1.77-1.77,3.58-2.72,5.57-3.59,7.53-6.98,15.25-10.07,22.94-2.09,5.18-4.07,10.43-5.89,15.62-2,5.63-3.87,11.35-5.58,17.02-1.42,4.67-2.76,9.4-3.99,14.08-1.11,4.2-2.18,8.59-3.2,13.05-.59,2.6-1.18,5.32-1.76,8.1-2.25,11.01-4.05,22.22-5.35,33.29v.02s0,.02,0,.02c-.11.89-.21,1.78-.3,2.67v.06s-.01.06-.01.06c-.05.46-.1.92-.15,1.38l-.08.76c-1.06,10.1-1.74,20.35-2.03,30.59h142.7l-3.32-3.32-19.38-19.38h-96.13l1.56-12.73c.14-1.12.28-2.25.43-3.37,1.52-11.36,3.59-22.8,6.16-33.99.76-3.3,1.54-6.49,2.31-9.48,1.42-5.5,2.98-11.03,4.64-16.45,1.07-3.48,2.21-7.02,3.41-10.54,2.31-6.79,4.8-13.47,7.4-19.87,1.81-4.49,3.79-9.1,5.87-13.71,4.19-9.27,8.8-18.44,13.71-27.27.67-1.23,1.38-2.49,2.1-3.73.42-.75.82-1.45,1.23-2.14,1.61-2.79,3.24-5.52,4.84-8.11,3.82-6.24,7.88-12.45,12.08-18.47,4.75-6.84,9.84-13.64,15.11-20.21,1.8-2.26,3.49-4.32,5.18-6.31,2.02-2.42,4.14-4.9,6.31-7.35,5.13-5.81,10.53-11.56,16.05-17.09,5.54-5.53,11.29-10.93,17.11-16.07,2.45-2.16,4.92-4.29,7.34-6.3,1.99-1.69,4.06-3.38,6.31-5.18,6.56-5.27,13.37-10.36,20.22-15.12,6-4.19,12.22-8.25,18.46-12.07,2.59-1.6,5.32-3.22,8.11-4.83.69-.41,1.4-.81,2.15-1.23,1.24-.72,2.49-1.42,3.72-2.09,5.78-3.21,11.7-6.29,17.59-9.16,3.28-1.6,6.55-3.14,9.69-4.56,4.6-2.08,9.22-4.05,13.72-5.87,6.38-2.59,13.06-5.08,19.83-7.38,3.54-1.2,7.08-2.34,10.56-3.41,5.42-1.66,10.95-3.22,16.43-4.64,3.01-.77,6.2-1.55,9.47-2.31,11.21-2.57,22.65-4.64,34.03-6.16,1.09-.15,2.2-.29,3.32-.43.85-.11,1.74-.22,2.63-.32,14.56-1.71,29.43-2.58,44.2-2.58s29.64.87,44.19,2.58c.89.1,1.78.21,2.63.32,1.11.14,2.22.28,3.33.43,11.37,1.52,22.81,3.59,33.99,6.16,3.3.76,6.48,1.54,9.48,2.31,5.5,1.42,11.03,2.98,16.45,4.64,3.48,1.07,7.02,2.21,10.54,3.41,6.79,2.31,13.47,4.8,19.86,7.4,4.49,1.81,9.1,3.79,13.71,5.87,3.14,1.42,6.41,2.95,9.71,4.57,5.87,2.85,11.79,5.93,17.57,9.15,1.23.67,2.48,1.38,3.72,2.09.75.42,1.45.82,2.15,1.23,2.79,1.61,5.52,3.24,8.11,4.84,6.24,3.82,12.45,7.88,18.47,12.08,6.84,4.75,13.64,9.84,20.21,15.11,2.26,1.8,4.32,3.49,6.31,5.18,2.42,2.02,4.9,4.14,7.35,6.31,5.81,5.13,11.56,10.53,17.09,16.05,5.53,5.54,10.93,11.29,16.07,17.11,2.16,2.45,4.29,4.92,6.3,7.34,1.69,1.99,3.38,4.06,5.18,6.31,5.27,6.56,10.36,13.37,15.12,20.22,4.19,6,8.25,12.21,12.07,18.45,1.6,2.6,3.22,5.32,4.84,8.11.41.69.81,1.4,1.23,2.15.71,1.24,1.42,2.49,2.09,3.72,4.91,8.84,9.53,18.01,13.71,27.27,2.08,4.61,4.06,9.23,5.88,13.73,2.59,6.38,5.08,13.06,7.38,19.83,1.2,3.54,2.34,7.08,3.41,10.56,1.66,5.42,3.22,10.95,4.64,16.43.77,3.01,1.55,6.2,2.31,9.47,2.57,11.21,4.64,22.65,6.16,34.03.15,1.1.29,2.23.43,3.35l1.56,12.73h-96.13l-22.7,22.7h142.7c-.29-10.25-.97-20.5-2.03-30.59Z"/>
    <path class="cls-1" d="m554.28,219.89l-13.59-13.59-3.44-3.44-34.06-34.06-68.11,68.11,10.13,10.13,6.9,6.9,51.08,51.08,68.11-68.11-17.03-17.03Zm-51.08,51.08l-17.03-17.03-14.18-14.18-2.85-2.85,34.06-34.06,34.06,34.06-34.06,34.06Z"/>
    <polygon class="cls-1" points="662.12 327.74 662.12 373.14 503.2 532.07 435.09 463.96 420.41 449.28 412.38 441.25 366.98 395.85 354.07 382.94 344.27 373.14 344.27 327.74 366.98 350.44 374.77 358.23 389.68 373.14 406.88 390.34 412.38 395.85 457.79 441.25 471.09 454.55 480.49 463.96 503.2 486.66 662.12 327.74"/>
    <polygon class="cls-1" points="639.42 236.92 639.42 282.33 503.2 418.55 480.49 395.85 465.82 381.17 457.79 373.14 412.38 327.74 399.48 314.83 389.68 305.03 366.98 282.33 366.98 236.92 389.68 259.63 394.59 264.54 412.38 282.33 503.2 373.14 639.42 236.92"/>
  </g>
  <g>
    <path class="cls-1" d="m76.96,676.06v-1.49c3.94-1.22,7.47-4.48,7.47-8.56v-83.4c0-4.07-3.53-7.33-7.47-8.56v-1.49h34.5c14.67,0,33.96,6.38,33.96,23.77,0,10.05-7.2,17.93-16.44,21.05,13.72,3.53,25.26,13.58,25.26,28.52,0,19.29-17.79,30.15-35.99,30.15h-41.29Zm20.92-97.25v89.65h21.19c13.04,0,20.92-10.59,20.92-22.68,0-13.17-8.69-23.23-22.68-23.23-6.11,0-14.26,2.85-14.26,9.37l-1.63.95c-1.09-1.63-1.9-3.8-1.9-5.7,0-10.05,9.64-11.95,17.66-11.95,9.37,0,14.67-10.32,14.67-18.47,0-11.82-8.69-17.93-20.51-17.93h-13.45Z"/>
    <path class="cls-1" d="m244.36,572.02c31.24,0,52.43,20.24,52.43,50.39s-20.65,54.87-52.43,54.87-52.56-20.24-52.56-50.39,20.65-54.87,52.56-54.87Zm-.41,98.07c24.45,0,37.08-25.81,37.08-47.54s-12.09-43.46-37.22-43.46-37.22,25.67-37.22,47.54,12.09,43.46,37.35,43.46Z"/>
    <path class="cls-1" d="m335.91,572.83h21.73l50.26,73.08v-63.16c0-3.94-5.98-7.33-9.78-8.56v-1.49h27.03v1.49c-3.8,1.22-9.92,4.62-9.92,8.56v97.39l-64.25-92.36v78.24c0,3.94,6.11,7.33,9.92,8.56v1.49h-27.03v-1.49c3.8-1.22,9.92-4.62,9.92-8.56v-81.22c0-8.42-5.84-9.64-7.88-10.73v-1.22Z"/>
    <path class="cls-1" d="m458.31,674.43l.27-.14c3.53-1.09,11.27-4.75,12.5-7.88l8.69-22c-6.25-1.9-11.41-5.3-11.41-12.63,0-1.63.27-3.26.68-4.89h1.77c.95,5.16,7.33,7.61,12.5,8.69l26.08-66.42,37.08,98.07c1.22,3.53,6.79,6.66,9.78,7.2l.54,1.63h-28.52l-.41-1.49c2.58-1.09,4.48-2.99,4.48-5.71,0-26.08-28.25-20.92-44.42-22.95l-8.29,21.6c-1.36,3.26,5.16,6.11,7.2,7.06l-.41,1.49h-28.66l.54-1.63Zm63.97-33.82l-15.76-42.11-15.08,38.03c10.05.82,21.46-.14,30.83,4.07Z"/>
    <path class="cls-1" d="m597.16,572.83h21.73l50.26,73.08v-63.16c0-3.94-5.98-7.33-9.78-8.56v-1.49h27.03v1.49c-3.8,1.22-9.91,4.62-9.91,8.56v97.39l-64.25-92.36v78.24c0,3.94,6.11,7.33,9.92,8.56v1.49h-27.03v-1.49c3.8-1.22,9.92-4.62,9.92-8.56v-81.22c0-8.42-5.84-9.64-7.88-10.73v-1.22Z"/>
    <path class="cls-1" d="m783.64,668.6c3.94,0,8.42-7.32,9.64-10.98h1.63l-1.09,18.45h-71.45l54.19-95.75-40.61-.14c-3.8,0-8.29,7.18-9.51,10.98h-1.63l1.09-18.45h69.41l-54.87,95.75,43.19.14Z"/>
    <path class="cls-1" d="m832.13,674.43l.27-.14c3.53-1.09,11.27-4.75,12.5-7.88l8.69-22c-6.25-1.9-11.41-5.3-11.41-12.63,0-1.63.27-3.26.68-4.89h1.77c.95,5.16,7.33,7.61,12.5,8.69l26.08-66.42,37.08,98.07c1.22,3.53,6.79,6.66,9.78,7.2l.54,1.63h-28.52l-.41-1.49c2.58-1.09,4.48-2.99,4.48-5.71,0-26.08-28.25-20.92-44.42-22.95l-8.29,21.6c-1.36,3.26,5.16,6.11,7.2,7.06l-.41,1.49h-28.66l.54-1.63Zm63.97-33.82l-15.76-42.11-15.08,38.03c10.05.82,21.46-.14,30.83,4.07Z"/>
  </g>
</svg>